<?xml version="1.0" encoding="UTF-8"?>
<svg xmlns="http://www.w3.org/2000/svg" xmlns:xlink="http://www.w3.org/1999/xlink" width="375pt" height="374.999991pt" viewBox="0 0 375 374.999991" version="1.2">
<defs>
<clipPath id="clip1">
  <path d="M 134 229.855469 L 339.738281 229.855469 L 339.738281 265.90625 L 134 265.90625 Z M 134 229.855469 "/>
</clipPath>
<clipPath id="clip2">
  <path d="M 17.03125 161 L 223 161 L 223 197 L 17.03125 197 Z M 17.03125 161 "/>
</clipPath>
</defs>
<g id="surface1">
<path style=" stroke:none;fill-rule:nonzero;fill:rgb(100%,100%,100%);fill-opacity:1;" d="M 187.5 4.582031 C 184.507812 4.582031 181.515625 4.65625 178.523438 4.804688 C 175.535156 4.949219 172.550781 5.171875 169.570312 5.464844 C 166.59375 5.757812 163.621094 6.125 160.660156 6.5625 C 157.699219 7.003906 154.75 7.515625 151.816406 8.097656 C 148.878906 8.683594 145.957031 9.335938 143.054688 10.066406 C 140.152344 10.792969 137.265625 11.589844 134.402344 12.460938 C 131.539062 13.328125 128.695312 14.265625 125.878906 15.277344 C 123.058594 16.285156 120.265625 17.363281 117.5 18.507812 C 114.734375 19.652344 112 20.867188 109.292969 22.144531 C 106.585938 23.425781 103.914062 24.769531 101.273438 26.183594 C 98.632812 27.59375 96.03125 29.066406 93.460938 30.605469 C 90.894531 32.144531 88.367188 33.746094 85.875 35.410156 C 83.386719 37.074219 80.941406 38.796875 78.535156 40.578125 C 76.132812 42.363281 73.773438 44.203125 71.457031 46.101562 C 69.144531 48.003906 66.878906 49.957031 64.660156 51.96875 C 62.441406 53.976562 60.273438 56.042969 58.160156 58.160156 C 56.042969 60.273438 53.976562 62.441406 51.96875 64.660156 C 49.957031 66.878906 48.003906 69.144531 46.101562 71.457031 C 44.203125 73.773438 42.363281 76.132812 40.578125 78.535156 C 38.796875 80.941406 37.074219 83.386719 35.410156 85.875 C 33.746094 88.367188 32.144531 90.894531 30.605469 93.460938 C 29.066406 96.03125 27.59375 98.632812 26.183594 101.273438 C 24.769531 103.914062 23.425781 106.585938 22.144531 109.292969 C 20.867188 112 19.652344 114.734375 18.507812 117.5 C 17.363281 120.265625 16.285156 123.058594 15.277344 125.878906 C 14.265625 128.695312 13.328125 131.539062 12.460938 134.402344 C 11.589844 137.265625 10.792969 140.152344 10.066406 143.054688 C 9.335938 145.957031 8.683594 148.878906 8.097656 151.816406 C 7.515625 154.75 7.003906 157.699219 6.5625 160.660156 C 6.125 163.621094 5.757812 166.59375 5.464844 169.570312 C 5.171875 172.550781 4.949219 175.535156 4.804688 178.523438 C 4.65625 181.515625 4.582031 184.507812 4.582031 187.5 C 4.582031 190.492188 4.65625 193.484375 4.804688 196.476562 C 4.949219 199.464844 5.171875 202.449219 5.464844 205.429688 C 5.757812 208.40625 6.125 211.378906 6.5625 214.339844 C 7.003906 217.300781 7.515625 220.25 8.097656 223.183594 C 8.683594 226.121094 9.335938 229.042969 10.066406 231.945312 C 10.792969 234.847656 11.589844 237.734375 12.460938 240.597656 C 13.328125 243.460938 14.265625 246.304688 15.277344 249.121094 C 16.285156 251.941406 17.363281 254.734375 18.507812 257.5 C 19.652344 260.265625 20.867188 263 22.144531 265.707031 C 23.425781 268.414062 24.769531 271.085938 26.183594 273.726562 C 27.59375 276.367188 29.066406 278.96875 30.605469 281.539062 C 32.144531 284.105469 33.746094 286.632812 35.410156 289.121094 C 37.074219 291.613281 38.796875 294.058594 40.578125 296.464844 C 42.363281 298.867188 44.203125 301.226562 46.101562 303.542969 C 48.003906 305.855469 49.957031 308.121094 51.96875 310.339844 C 53.976562 312.558594 56.042969 314.726562 58.160156 316.839844 C 60.273438 318.957031 62.441406 321.023438 64.660156 323.03125 C 66.878906 325.042969 69.144531 326.996094 71.457031 328.894531 C 73.773438 330.796875 76.132812 332.636719 78.535156 334.421875 C 80.941406 336.203125 83.386719 337.925781 85.875 339.589844 C 88.367188 341.253906 90.894531 342.855469 93.460938 344.394531 C 96.03125 345.933594 98.632812 347.40625 101.273438 348.816406 C 103.914062 350.230469 106.585938 351.574219 109.292969 352.855469 C 112 354.132812 114.734375 355.347656 117.5 356.492188 C 120.265625 357.636719 123.058594 358.714844 125.878906 359.722656 C 128.695312 360.734375 131.539062 361.671875 134.402344 362.539062 C 137.265625 363.410156 140.152344 364.207031 143.054688 364.933594 C 145.957031 365.664062 148.878906 366.316406 151.816406 366.902344 C 154.75 367.484375 157.699219 367.996094 160.660156 368.4375 C 163.621094 368.875 166.59375 369.242188 169.570312 369.535156 C 172.550781 369.828125 175.535156 370.050781 178.523438 370.195312 C 181.515625 370.34375 184.507812 370.417969 187.5 370.417969 C 190.492188 370.417969 193.484375 370.34375 196.476562 370.195312 C 199.464844 370.050781 202.449219 369.828125 205.429688 369.535156 C 208.40625 369.242188 211.378906 368.875 214.339844 368.4375 C 217.300781 367.996094 220.25 367.484375 223.183594 366.902344 C 226.121094 366.316406 229.042969 365.664062 231.945312 364.933594 C 234.847656 364.207031 237.734375 363.410156 240.597656 362.539062 C 243.460938 361.671875 246.304688 360.734375 249.121094 359.722656 C 251.941406 358.714844 254.734375 357.636719 257.5 356.492188 C 260.265625 355.347656 263 354.132812 265.707031 352.855469 C 268.414062 351.574219 271.085938 350.230469 273.726562 348.816406 C 276.367188 347.40625 278.96875 345.933594 281.539062 344.394531 C 284.105469 342.855469 286.632812 341.253906 289.121094 339.589844 C 291.613281 337.925781 294.058594 336.203125 296.464844 334.421875 C 298.867188 332.636719 301.226562 330.796875 303.542969 328.894531 C 305.855469 326.996094 308.121094 325.042969 310.339844 323.03125 C 312.558594 321.023438 314.726562 318.957031 316.839844 316.839844 C 318.957031 314.726562 321.023438 312.558594 323.03125 310.339844 C 325.042969 308.121094 326.996094 305.855469 328.894531 303.542969 C 330.796875 301.226562 332.636719 298.867188 334.421875 296.464844 C 336.203125 294.058594 337.925781 291.613281 339.589844 289.121094 C 341.253906 286.632812 342.855469 284.105469 344.394531 281.539062 C 345.933594 278.96875 347.40625 276.367188 348.816406 273.726562 C 350.230469 271.085938 351.574219 268.414062 352.855469 265.707031 C 354.132812 263 355.347656 260.265625 356.492188 257.5 C 357.636719 254.734375 358.714844 251.941406 359.722656 249.121094 C 360.734375 246.304688 361.671875 243.460938 362.539062 240.597656 C 363.410156 237.734375 364.207031 234.847656 364.933594 231.945312 C 365.664062 229.042969 366.316406 226.121094 366.902344 223.183594 C 367.484375 220.25 367.996094 217.300781 368.4375 214.339844 C 368.875 211.378906 369.242188 208.40625 369.535156 205.429688 C 369.828125 202.449219 370.050781 199.464844 370.195312 196.476562 C 370.34375 193.484375 370.417969 190.492188 370.417969 187.5 C 370.417969 184.507812 370.34375 181.515625 370.195312 178.523438 C 370.050781 175.535156 369.828125 172.550781 369.535156 169.570312 C 369.242188 166.59375 368.875 163.621094 368.4375 160.660156 C 367.996094 157.699219 367.484375 154.75 366.902344 151.816406 C 366.316406 148.878906 365.664062 145.957031 364.933594 143.054688 C 364.207031 140.152344 363.410156 137.265625 362.539062 134.402344 C 361.671875 131.539062 360.734375 128.695312 359.722656 125.878906 C 358.714844 123.058594 357.636719 120.265625 356.492188 117.5 C 355.347656 114.734375 354.132812 112 352.855469 109.292969 C 351.574219 106.585938 350.230469 103.914062 348.816406 101.273438 C 347.40625 98.632812 345.933594 96.03125 344.394531 93.460938 C 342.855469 90.894531 341.253906 88.367188 339.589844 85.875 C 337.925781 83.386719 336.203125 80.941406 334.421875 78.535156 C 332.636719 76.132812 330.796875 73.773438 328.894531 71.457031 C 326.996094 69.144531 325.042969 66.878906 323.03125 64.660156 C 321.023438 62.441406 318.957031 60.273438 316.839844 58.160156 C 314.726562 56.042969 312.558594 53.976562 310.339844 51.96875 C 308.121094 49.957031 305.855469 48.003906 303.542969 46.101562 C 301.226562 44.203125 298.867188 42.363281 296.464844 40.578125 C 294.058594 38.796875 291.613281 37.074219 289.121094 35.410156 C 286.632812 33.746094 284.105469 32.144531 281.539062 30.605469 C 278.96875 29.066406 276.367188 27.59375 273.726562 26.183594 C 271.085938 24.769531 268.414062 23.425781 265.707031 22.144531 C 263 20.867188 260.265625 19.652344 257.5 18.507812 C 254.734375 17.363281 251.941406 16.285156 249.121094 15.277344 C 246.304688 14.265625 243.460938 13.328125 240.597656 12.460938 C 237.734375 11.589844 234.847656 10.792969 231.945312 10.066406 C 229.042969 9.335938 226.121094 8.683594 223.183594 8.097656 C 220.25 7.515625 217.300781 7.003906 214.339844 6.5625 C 211.378906 6.125 208.40625 5.757812 205.429688 5.464844 C 202.449219 5.171875 199.464844 4.949219 196.476562 4.804688 C 193.484375 4.65625 190.492188 4.582031 187.5 4.582031 Z M 187.5 4.582031 "/>
<path style=" stroke:none;fill-rule:evenodd;fill:rgb(14.509583%,32.548523%,89.019775%);fill-opacity:1;" d="M 245.609375 171.257812 L 245.738281 170.535156 C 245.734375 170.476562 245.726562 170.359375 245.71875 170.296875 C 242.550781 144.617188 241.089844 106.804688 282.636719 107.859375 C 307.128906 108.480469 329.234375 138.835938 316.683594 169.011719 L 313.535156 175.375 C 268.703125 229.761719 162.953125 208.695312 105.105469 196.179688 C 105.480469 196.519531 105.949219 197.027344 106.261719 197.292969 C 107.703125 198.5 108.777344 198.925781 110.351562 199.914062 C 156.792969 229.0625 299.707031 239.550781 329.492188 181.1875 C 358.082031 125.164062 288.839844 67.1875 249.429688 108.621094 C 235.691406 124.257812 225.789062 156.167969 245.609375 171.257812 "/>
<g clip-path="url(#clip1)" clip-rule="nonzero">
<path style=" stroke:none;fill-rule:evenodd;fill:rgb(14.509583%,32.548523%,89.019775%);fill-opacity:1;" d="M 339.738281 230.015625 C 338.4375 229.277344 332.191406 235.609375 330.859375 236.585938 C 327.5625 239.011719 324.582031 240.878906 320.84375 242.875 C 318.695312 243.578125 316.445312 244.785156 313.984375 245.710938 C 311.414062 246.675781 309.257812 247.042969 307.195312 247.925781 L 301.183594 248.953125 C 281.34375 249.566406 280.753906 248.890625 260.726562 243.863281 C 236.734375 237.839844 205.863281 232.320312 182.492188 239.875 C 170.117188 243.800781 167.589844 244.65625 156.058594 250.570312 C 149.4375 253.960938 138.652344 259.824219 134.398438 265.9375 C 137.304688 265.238281 160.316406 249.757812 182.09375 245.871094 C 200.761719 241.285156 221.441406 244.007812 239.84375 248.683594 C 283.574219 259.792969 309.667969 272.652344 339.738281 230.015625 "/>
</g>
<g clip-path="url(#clip2)" clip-rule="nonzero">
<path style=" stroke:none;fill-rule:evenodd;fill:rgb(14.509583%,32.548523%,89.019775%);fill-opacity:1;" d="M 222.574219 161.074219 C 221.273438 160.332031 215.023438 166.664062 213.695312 167.644531 C 210.402344 170.066406 207.417969 171.9375 203.683594 173.933594 C 201.53125 174.636719 199.28125 175.84375 196.824219 176.769531 C 194.246094 177.734375 192.089844 178.101562 190.03125 178.984375 L 184.019531 180.011719 C 164.179688 180.625 163.59375 179.953125 143.5625 174.921875 C 119.570312 168.898438 88.699219 163.382812 65.324219 170.933594 C 52.953125 174.859375 50.425781 175.714844 38.890625 181.625 C 32.273438 185.019531 21.492188 190.878906 17.234375 196.996094 C 20.136719 196.296875 43.152344 180.816406 64.929688 176.929688 C 83.59375 172.34375 104.277344 175.066406 122.679688 179.742188 C 166.414062 190.847656 192.5 203.714844 222.574219 161.074219 "/>
</g>
<path style=" stroke:none;fill-rule:evenodd;fill:rgb(14.509583%,32.548523%,89.019775%);fill-opacity:1;" d="M 203.613281 129.066406 C 202.898438 128.660156 199.460938 132.144531 198.730469 132.683594 C 196.917969 134.019531 195.277344 135.046875 193.21875 136.144531 C 192.03125 136.535156 190.796875 137.199219 189.441406 137.703125 C 188.027344 138.234375 186.839844 138.441406 185.703125 138.925781 L 182.394531 139.492188 C 171.480469 139.828125 171.15625 139.457031 160.136719 136.6875 C 146.929688 133.375 129.9375 130.339844 117.078125 134.496094 C 110.269531 136.652344 108.878906 137.125 102.53125 140.378906 C 98.886719 142.25 92.957031 145.472656 90.613281 148.839844 C 92.210938 148.449219 104.875 139.933594 116.859375 137.792969 C 127.132812 135.269531 138.511719 136.769531 148.640625 139.339844 C 172.707031 145.453125 187.066406 152.53125 203.613281 129.066406 "/>
</g>
</svg>
